<svg width="23" height="32" viewBox="0 0 23 32" fill="none" xmlns="http://www.w3.org/2000/svg">
<path d="M14.2472 6.63983C15.9427 6.63983 17.3171 5.26538 17.3171 3.56992C17.3171 1.87445 15.9427 0.5 14.2472 0.5C12.5517 0.5 11.1773 1.87445 11.1773 3.56992C11.1773 5.26538 12.5517 6.63983 14.2472 6.63983Z" fill="#9B2BD9"/>
<path d="M15.7484 16.264C16.1245 16.8289 16.6862 17.2571 17.3309 17.472L21.4369 18.8412L22.4086 15.9309L18.3026 14.5617L15.7499 10.732C15.4538 10.2879 15.0469 9.92867 14.5695 9.68979L12.3684 8.58923C11.7132 8.26331 10.963 8.1822 10.2532 8.36052L5.35212 9.58388C4.92186 9.69087 4.51987 9.88978 4.17382 10.1669C3.82776 10.4441 3.54585 10.7929 3.34746 11.1894L0.59375 16.6984L3.33979 18.0722L6.0935 12.5632L9.50571 11.7098L6.73665 24.5205L1.09722 28.3994L2.83632 30.929L8.47729 27.0486C9.12351 26.6035 9.57172 25.9358 9.73596 25.1683L10.5295 21.5028L14.393 24.4008L15.8129 31.5L18.8229 30.8968L17.4031 23.7945C17.254 23.0547 16.8376 22.3957 16.2334 21.9434L12.901 19.4444L13.8942 13.4811L15.7484 16.264Z" fill="#9B2BD9"/>
</svg>
