<svg width="15" height="14" viewBox="0 0 15 14" fill="none" xmlns="http://www.w3.org/2000/svg">
<path d="M14.265 8.65219L12.5366 11.6458C12.1979 12.2404 11.5687 12.5515 10.9327 12.51H9.54995V13.8927L7.82154 10.7816L9.54995 7.67045V9.05318H11.4996L9.96476 6.39143L12.9584 4.66302L14.2028 6.82007C14.5623 7.35242 14.6107 8.06453 14.265 8.65219ZM5.54695 0.106934H9.00377C9.6813 0.106934 10.269 0.501011 10.5524 1.06793L11.2438 2.2709L12.4398 1.57954L10.8929 4.69067H7.05412L8.25018 3.99931L7.27536 2.30547L5.74745 4.96722L2.74693 3.23881L3.99138 1.08176C4.27484 0.507924 4.8625 0.106934 5.54695 0.106934ZM2.67088 11.6527L0.942472 8.6591C0.603704 8.07144 0.6521 7.36625 1.0047 6.8339L1.69606 5.63784L0.5 4.94648L4.05361 5.00179L5.88572 8.05761L4.68966 7.36625L3.71484 9.05318H6.78449V12.51H4.29558C3.97168 12.5334 3.64771 12.4655 3.36049 12.314C3.07327 12.1624 2.83435 11.9333 2.67088 11.6527Z" fill="#9B2BD9"/>
</svg>
