<svg width="40" height="50" viewBox="0 0 40 50" fill="none" xmlns="http://www.w3.org/2000/svg">
<path d="M19.999 0.25H20C25.2547 0.25012 30.3007 2.39868 34.0264 6.23633C37.4049 9.71197 39.1583 13.5948 39.6221 17.623C40.0838 21.6197 39.2599 25.6412 37.6768 29.4248C34.5326 36.9563 28.2737 43.8197 22.2627 48.2881H22.2617C22.0771 48.4259 21.8851 48.593 21.6953 48.7578C21.5028 48.925 21.3105 49.0926 21.1143 49.2432C20.713 49.5511 20.3435 49.75 20 49.75C19.6565 49.75 19.2871 49.5509 18.8857 49.2432C18.6894 49.0926 18.4963 48.925 18.3037 48.7578C18.1138 48.593 17.922 48.4259 17.7373 48.2881H17.7363C11.7254 43.8198 5.46688 36.9538 2.32031 29.4248C0.739641 25.6414 -0.0822895 21.6203 0.376953 17.6211C0.826207 13.7211 2.48601 9.95721 5.66113 6.56348L5.97266 6.23633C9.71362 2.39422 14.7529 0.244966 19.999 0.25Z" fill="url(#paint0_linear_858_3512)" stroke="#BA0A00" stroke-width="0.5"/>
<path d="M15.3 23.988H19.524V25.284H9.516V23.988H13.716V21.684H10.68V16.236H18.372V17.508H12.276V20.412H18.456V21.684H15.3V23.988ZM26.9151 20.664L26.1951 21.9C24.9471 21.564 24.0951 20.856 23.6031 19.968C23.1231 20.94 22.2471 21.708 20.9871 22.092L20.2311 20.856C21.9951 20.364 22.7631 19.128 22.7871 17.88H20.6271V16.632H22.7871V15.444H24.3711V16.632H26.5551V17.88H24.3711C24.3951 19.032 25.1631 20.196 26.9151 20.664ZM21.6351 23.976V22.716H29.0151V26.544H27.4311V23.976H21.6351ZM30.4791 18.204V19.5H29.0151V22.248H27.4311V15.48H29.0151V18.204H30.4791Z" fill="white"/>
<defs>
<linearGradient id="paint0_linear_858_3512" x1="20" y1="48.4566" x2="20" y2="-3.85041e-07" gradientUnits="userSpaceOnUse">
<stop offset="0.913462" stop-color="#DE0000"/>
</linearGradient>
</defs>
</svg>
