<svg width="32" height="38" viewBox="0 0 32 38" fill="none" xmlns="http://www.w3.org/2000/svg">
<path d="M15.999 0.25H16C20.1943 0.250091 24.2193 1.87346 27.1895 4.76953V4.77051C29.8839 7.39453 31.2795 10.3219 31.6484 13.3555C31.9929 16.1781 31.4386 19.0199 30.3271 21.7188L30.0967 22.2568C27.5875 27.9467 22.5893 33.1368 17.7852 36.5176C17.6356 36.6232 17.4807 36.7514 17.3291 36.876C17.1748 37.0028 17.0218 37.1282 16.8662 37.2412C16.5475 37.4728 16.2615 37.6162 16 37.6162C15.7385 37.6162 15.4526 37.4727 15.1338 37.2412C14.9781 37.1281 14.8243 37.0019 14.6699 36.875C14.5185 36.7505 14.3633 36.6231 14.2139 36.5176L13.7627 36.1953C9.09958 32.8118 4.33306 27.767 1.90039 22.2568C0.639229 19.3992 -0.0148787 16.3664 0.350586 13.3535C0.719475 10.322 2.11417 7.39551 4.80859 4.76953L4.80957 4.77051C7.79204 1.87079 11.8116 0.246237 15.999 0.25Z" fill="#2586DE" stroke="#003E76" stroke-width="0.5"/>
<path d="M8.39 15.75H14.9V16.82H8.39V15.75ZM7.41 18.76H15.8V19.85H7.41V18.76ZM10.93 16.24H12.25V19.11H10.93V16.24ZM8.39 12.26H14.83V13.32H9.71V16.21H8.39V12.26ZM18.6792 13.27H19.7592V13.6C19.7592 14.14 19.6659 14.65 19.4792 15.13C19.2926 15.6033 19.0059 16.0167 18.6192 16.37C18.2392 16.7233 17.7526 16.9867 17.1592 17.16L16.5392 16.12C17.0392 15.98 17.4459 15.78 17.7592 15.52C18.0792 15.26 18.3126 14.9633 18.4592 14.63C18.6059 14.29 18.6792 13.9467 18.6792 13.6V13.27ZM18.9292 13.27H20.0092V13.6C20.0092 13.92 20.0826 14.2367 20.2292 14.55C20.3826 14.8633 20.6159 15.1467 20.9292 15.4C21.2426 15.6467 21.6459 15.8367 22.1392 15.97L21.5292 17C20.9426 16.8333 20.4559 16.5833 20.0692 16.25C19.6892 15.91 19.4026 15.5133 19.2092 15.06C19.0226 14.6 18.9292 14.1133 18.9292 13.6V13.27ZM16.8592 12.59H21.8392V13.63H16.8592V12.59ZM18.6792 11.6H20.0092V13.04H18.6792V11.6ZM22.5592 11.63H23.8892V17.29H22.5592V11.63ZM23.5292 13.9H25.1192V14.99H23.5292V13.9ZM17.7092 17.68H23.8892V20.89H22.5592V18.75H17.7092V17.68Z" fill="white"/>
</svg>
