<svg width="64" height="107" viewBox="0 0 64 107" fill="none" xmlns="http://www.w3.org/2000/svg">
<path d="M30.5013 71.9608C30.6097 73.19 30.7935 74.1035 31.0464 74.7062C31.3022 75.3068 31.7578 75.6069 32.4133 75.6066C32.5359 75.6066 32.6457 75.5857 32.7545 75.5614C32.866 75.5857 32.9753 75.6066 33.0989 75.6066C33.7538 75.6066 34.2088 75.3064 34.464 74.7062C34.7182 74.1035 34.8989 73.19 35.0095 71.9608L35.5921 62.4703C35.701 60.6206 35.7556 59.293 35.7559 58.4874C35.7562 57.3909 35.4928 56.5353 34.9658 55.9208C34.4368 55.3066 33.7417 54.9997 32.8808 55C32.8348 55 32.8005 55.0112 32.7554 55.0131C32.7126 55.0112 32.6773 55 32.6327 55C31.77 55 31.0763 55.3064 30.5481 55.9208C30.0202 56.5363 29.7562 57.392 29.7559 58.4879C29.7556 59.2935 29.8103 60.6211 29.92 62.4707L30.5013 71.9608ZM32.7773 79.0756C31.9413 79.0756 31.2311 79.3626 30.6414 79.9366C30.0519 80.5113 29.757 81.2082 29.7568 82.0273C29.7568 82.9515 30.0556 83.679 30.6489 84.2074C31.2449 84.7358 31.9401 85 32.7344 85C33.5431 85 34.2488 84.7392 34.8516 84.2176C35.4539 83.697 35.755 82.9656 35.755 82.0283C35.755 81.2092 35.4668 80.5123 34.8904 79.9376C34.3144 79.3626 33.6095 79.0752 32.7759 79.0756" fill="#404040"/>
<mask id="mask0_2102_4" style="mask-type:luminance" maskUnits="userSpaceOnUse" x="0" y="0" width="64" height="107">
<path d="M63.8184 0H0.818359V107H63.8184V0Z" fill="white"/>
</mask>
<g mask="url(#mask0_2102_4)">
<path d="M10.8184 42.7134V85.8161C10.8184 87.7214 11.5742 89.5486 12.9195 90.8958C14.2648 92.243 16.0895 92.9999 17.992 92.9999H46.6868C48.5894 92.9999 50.414 92.243 51.7593 90.8958C53.1047 89.5486 53.8605 87.7214 53.8605 85.8161V57.081L29.0036 42.7134H10.8184Z" stroke="#444444" stroke-width="3" stroke-linejoin="round" stroke-dasharray="4 2"/>
<path d="M58.2315 48.3572L61.8184 42.1433L50.9502 35.8574L49.6231 30.9365L34.0921 21.9568L29.214 23.2858L18.31 17L14.7231 23.214L58.2315 48.3572Z" stroke="#444444" stroke-width="3" stroke-linejoin="round" stroke-dasharray="4 2"/>
</g>
</svg>
