<svg width="68" height="94" viewBox="0 0 68 94" fill="none" xmlns="http://www.w3.org/2000/svg">
<path d="M61 49.3168C60.3523 59.1646 60.1895 59.8327 59.3414 66.5337C58.0531 76.7117 56.985 81.0827 53.8661 84.0393C50.7471 86.9959 45.948 86.9995 36.3569 86.9995H33.5661C23.975 86.9995 19.1758 86.9995 16.0569 84.0393C12.9379 81.0827 11.8118 76.3038 10.5815 66.5337C9.73768 59.8322 9.57065 59.1646 8.92292 49.3168M7 29.8771C10.7753 26.9289 20.927 20.4729 31.3317 18.234C41.7364 15.9952 51.7492 16.0507 55.455 16.3584M25.5509 45.1106L25.5679 49.3703M43.6552 45.1106L43.6723 49.3703M17.5792 19.4146C17.2879 15.2801 18.3259 8.59333 26.8436 7.17772C33.9527 5.99621 36.9061 10.9488 38.1201 14.3942" stroke="#9B2BD9" stroke-width="14" stroke-linecap="round"/>
</svg>
