<svg width="30" height="30" viewBox="0 0 30 30" fill="none" xmlns="http://www.w3.org/2000/svg">
<g filter="url(#filter0_d_858_3523)">
<path d="M15 5C17.6522 5 20.1957 6.05357 22.0711 7.92893C23.9464 9.8043 25 12.3478 25 15C25 17.6522 23.9464 20.1957 22.0711 22.0711C20.1957 23.9464 17.6522 25 15 25C12.3478 25 9.8043 23.9464 7.92894 22.0711C6.05357 20.1957 5 17.6522 5 15C5 12.3478 6.05357 9.80429 7.92894 7.92893C9.8043 6.05357 12.3478 5 15 5Z" fill="#CD1891"/>
<path d="M23 15C23 17.1217 22.1575 19.1569 20.6572 20.6572C19.1569 22.1575 17.1217 23 15 23C12.8783 23 10.8431 22.1575 9.34277 20.6572C7.84248 19.1569 7 17.1217 7 15C7 12.8783 7.84248 10.8431 9.34277 9.34277C10.8431 7.84248 12.8783 7 15 7C17.1217 7 19.1569 7.84248 20.6572 9.34277C22.1575 10.8431 23 12.8783 23 15Z" stroke="white" stroke-width="4" stroke-linecap="round"/>
</g>
<defs>
<filter id="filter0_d_858_3523" x="0" y="0" width="30" height="30" filterUnits="userSpaceOnUse" color-interpolation-filters="sRGB">
<feFlood flood-opacity="0" result="BackgroundImageFix"/>
<feColorMatrix in="SourceAlpha" type="matrix" values="0 0 0 0 0 0 0 0 0 0 0 0 0 0 0 0 0 0 127 0" result="hardAlpha"/>
<feOffset/>
<feGaussianBlur stdDeviation="2.5"/>
<feComposite in2="hardAlpha" operator="out"/>
<feColorMatrix type="matrix" values="0 0 0 0 0 0 0 0 0 0 0 0 0 0 0 0 0 0 0.2 0"/>
<feBlend mode="normal" in2="BackgroundImageFix" result="effect1_dropShadow_858_3523"/>
<feBlend mode="normal" in="SourceGraphic" in2="effect1_dropShadow_858_3523" result="shape"/>
</filter>
</defs>
</svg>
