<svg width="25" height="25" viewBox="0 0 25 25" fill="none" xmlns="http://www.w3.org/2000/svg">
<circle cx="12.5" cy="12.5" r="12.5" fill="url(#paint0_linear_3001_3845)"/>
<path d="M20.9035 15.5526L18.7565 19.2712C18.3356 20.0097 17.5541 20.3962 16.764 20.3447H15.0464V22.0623L12.8994 18.1977L15.0464 14.3331V16.0507H17.4683L15.5617 12.7443L19.2803 10.5973L20.8262 13.2767C21.2728 13.938 21.3329 14.8226 20.9035 15.5526ZM10.074 4.93774H14.368C15.2096 4.93774 15.9396 5.42726 16.2917 6.13148L17.1505 7.6258L18.6362 6.767L16.7147 10.6316H11.9461L13.4319 9.77281L12.221 7.66874L10.323 10.9751L6.5958 8.82812L8.14165 6.14866C8.49375 5.43585 9.22374 4.93774 10.074 4.93774ZM6.50133 19.2798L4.35432 15.5611C3.93351 14.8312 3.99362 13.9552 4.43161 13.2939L5.29042 11.8082L3.80469 10.9494L8.21894 11.0181L10.4948 14.814L9.00904 13.9552L7.79812 16.0507H11.6112V20.3447H8.51952C8.11717 20.3738 7.71473 20.2894 7.35796 20.1012C7.00118 19.9129 6.70439 19.6283 6.50133 19.2798Z" fill="white"/>
<defs>
<linearGradient id="paint0_linear_3001_3845" x1="6.05403" y1="-1.24248" x2="25.2102" y2="17.5838" gradientUnits="userSpaceOnUse">
<stop stop-color="#A72FE7"/>
<stop offset="0.616715" stop-color="#8225B4" stop-opacity="0.95"/>
<stop offset="1" stop-color="#5D1A81"/>
</linearGradient>
</defs>
</svg>
