<svg width="18" height="21" viewBox="0 0 18 21" fill="none" xmlns="http://www.w3.org/2000/svg">
<path d="M3.13994 3.148C4.70211 1.60944 6.80733 0.747954 8.99994 0.750004C11.1959 0.750004 13.3039 1.611 14.8599 3.148C16.2689 4.538 17.0029 6.094 17.1969 7.71C17.3899 9.312 17.0449 10.92 16.3869 12.428C15.0809 15.428 12.4849 18.156 9.99494 19.931C9.70471 20.1386 9.3568 20.2503 8.99994 20.2503C8.64308 20.2503 8.29517 20.1386 8.00494 19.931C5.51494 18.156 2.91894 15.427 1.61194 12.428C0.954941 10.92 0.610941 9.312 0.802941 7.709C0.996941 6.094 1.73094 4.539 3.13994 3.148Z" fill="#A5A5A5"/>
<path d="M14.5535 7.375L13.9285 8.45625L6.34727 4.08125L6.97227 3L8.87227 4.09375L9.72227 3.8625L12.4285 5.425L12.6598 6.28125L14.5535 7.375ZM5.57227 13.6813V6.18125H8.74102L13.0723 8.68125V13.6813C13.0723 14.0128 12.9406 14.3307 12.7061 14.5651C12.4717 14.7996 12.1538 14.9313 11.8223 14.9313H6.82227C6.49075 14.9313 6.1728 14.7996 5.93838 14.5651C5.70396 14.3307 5.57227 14.0128 5.57227 13.6813Z" fill="white"/>
</svg>
