<svg width="15" height="17" viewBox="0 0 15 17" fill="none" xmlns="http://www.w3.org/2000/svg">
<path d="M12.6711 4.95516L12.0967 4.37944C11.0087 3.28881 9.57001 2.62038 8.0365 2.49309C6.50299 2.3658 4.97414 2.78789 3.72199 3.68428C2.46984 4.58066 1.57559 5.8932 1.19836 7.38836C0.821126 8.88351 0.98537 10.4643 1.66187 11.8495C2.33837 13.2347 3.48325 14.3344 4.89281 14.953C6.30237 15.5716 7.88518 15.6689 9.35962 15.2277C10.8341 14.7865 12.1045 13.8353 12.9449 12.5434C13.7853 11.2515 14.1412 9.70271 13.9492 8.17255M12.6711 4.95516L9.22369 4.95598M12.6711 4.95516V1.5" stroke="#262626" stroke-width="1.5" stroke-linecap="round" stroke-linejoin="round"/>
</svg>
