<svg width="245" height="302" viewBox="0 0 245 302" fill="none" xmlns="http://www.w3.org/2000/svg">
<rect x="23.1309" width="200" height="200" rx="10" fill="#00B94E"/>
<path d="M85.5411 50.9864C95.6139 40.7295 109.188 34.9864 123.326 35C137.486 35 151.078 40.7399 161.111 50.9864C170.196 60.253 174.929 70.6262 176.18 81.3993C177.425 92.0792 175.2 102.799 170.957 112.852C162.536 132.852 145.797 151.038 129.742 162.871C127.871 164.256 125.627 165 123.326 165C121.025 165 118.782 164.256 116.91 162.871C100.855 151.038 84.1161 132.845 75.6887 112.852C71.4523 102.799 69.2342 92.0792 70.4723 81.3927C71.7232 70.6262 76.456 60.2596 85.5411 50.9864Z" fill="white"/>
<path d="M130.195 61.9971C131.133 61.9971 131.969 62.5935 132.272 63.4818L132.968 65.5235C133.086 65.8689 133.112 66.2176 133.063 66.5476H147.864C149.076 66.5478 150.058 67.5299 150.058 68.7414V75.7415C150.058 76.9528 149.076 77.9351 147.864 77.9353H98.7889C97.5774 77.9353 96.5953 76.953 96.5951 75.7415V68.7404C96.5954 67.529 97.5775 66.5476 98.7889 66.5476H113.592C113.544 66.2175 113.57 65.8689 113.687 65.5235L114.384 63.4818C114.687 62.5937 115.521 61.9973 116.46 61.9971H130.195Z" fill="#00B94E"/>
<path d="M150.059 124.367C150.059 125.579 149.077 126.561 147.866 126.561H98.7889C97.5773 126.561 96.5951 125.579 96.5951 124.367V86.7146C96.5951 84.9253 98.6218 83.8886 100.073 84.9356L112.442 93.8618C113.304 94.4838 114.488 94.3984 115.252 93.6592L121.846 87.2766C122.712 86.4382 124.092 86.4557 124.937 87.3158L131.225 93.7194C131.985 94.4928 133.195 94.5956 134.075 93.9613L146.582 84.9356C148.033 83.8886 150.059 84.9253 150.059 86.7146V124.367Z" fill="#00B94E"/>
<path d="M157.279 301L157.279 229C157.279 228.448 156.832 228 156.279 228L143.179 228C142.627 228 142.179 228.448 142.179 229L142.179 301C142.179 301.552 142.627 302 143.179 302L156.279 302C156.832 302 157.279 301.552 157.279 301Z" fill="#444444"/>
<path d="M58.9397 244.483H40.2292L40.5767 258.141H58.8696V267.938H40.5767L36.5996 281.526H58.8696V301C58.8696 301.552 59.3173 302 59.8696 302H72.7683C73.3206 302 73.7683 301.552 73.7683 301V229C73.7683 228.448 73.3206 228 72.7683 228H59.9397C59.3874 228 58.9397 228.448 58.9397 229V244.483Z" fill="#444444"/>
<path d="M24.5118 235.645C31.0364 235.645 37.2998 236.931 41.9229 241.666C46.1091 245.948 48.2899 250.339 48.8662 255.317C49.4396 260.253 48.4149 266.604 46.46 271.25C42.5797 280.493 34.866 287.903 27.4678 293.371C26.6055 294.011 25.572 294.355 24.5118 294.355C23.4515 294.355 22.418 294.011 21.5557 293.371C14.1576 287.903 6.44386 280.489 2.56059 271.25C0.60873 266.604 -0.413079 260.253 0.157265 255.314C0.733656 250.339 2.91444 245.951 7.10062 241.666C11.742 236.926 17.9972 235.638 24.5118 235.645ZM24.5127 248.782C18.5747 248.782 13.7609 253.127 13.7608 260.332C13.7608 267.537 18.5746 276.119 24.5127 276.119C30.451 276.119 35.2657 267.537 35.2657 260.332C35.2655 253.127 30.4509 248.782 24.5127 248.782Z" fill="#00B94E"/>
<path d="M132.231 233.537H91.5118C90.9595 233.537 90.5118 233.984 90.5118 234.537V246.651C90.5118 247.204 90.9595 247.651 91.5118 247.651H115.355C115.874 247.651 116.302 248.045 116.318 248.564C116.408 251.63 116.214 261.893 110.324 271.233C106.053 278.005 95.5178 284.753 91.8202 286.988C91.204 287.36 91.1536 288.244 91.7281 288.678L102.796 297.037C103.111 297.275 103.526 297.31 103.866 297.108C106.888 295.311 121.539 286.015 127.843 271.233C132.786 259.639 133.194 239.213 133.222 234.518C133.225 233.969 132.78 233.537 132.231 233.537Z" fill="#444444"/>
<path d="M242.028 233.537C243.133 233.537 244.028 234.432 244.028 235.537V248.141C244.028 249.246 243.133 250.141 242.028 250.141H173.668C172.563 250.141 171.668 249.246 171.668 248.141V235.537C171.668 234.432 172.563 233.537 173.668 233.537H242.028Z" fill="#00B94E"/>
<path d="M171.627 281.636V268.835C171.627 267.218 173.446 266.27 174.772 267.195L193.924 280.563C194.695 281.101 195.737 281.03 196.427 280.391L206.559 271.019C207.329 270.307 208.519 270.311 209.284 271.028L219.272 280.384C219.959 281.027 221 281.105 221.774 280.572L241.248 267.159C242.575 266.245 244.383 267.195 244.383 268.806V281.628C244.383 282.232 244.11 282.804 243.64 283.183L221.706 300.904C220.972 301.497 219.924 301.497 219.19 300.903L209.177 292.79C208.446 292.198 207.402 292.195 206.668 292.782L196.509 300.91C195.772 301.5 194.723 301.494 193.992 300.896L172.36 283.183C171.896 282.803 171.627 282.235 171.627 281.636Z" fill="#00B94E"/>
<path d="M157.279 301L157.279 229C157.279 228.448 156.832 228 156.279 228L143.179 228C142.627 228 142.179 228.448 142.179 229L142.179 301C142.179 301.552 142.627 302 143.179 302L156.279 302C156.832 302 157.279 301.552 157.279 301Z" fill="#444444"/>
<path d="M58.9397 244.483H40.2292L40.5767 258.141H58.8696V267.938H40.5767L36.5996 281.526H58.8696V301C58.8696 301.552 59.3173 302 59.8696 302H72.7683C73.3206 302 73.7683 301.552 73.7683 301V229C73.7683 228.448 73.3206 228 72.7683 228H59.9397C59.3874 228 58.9397 228.448 58.9397 229V244.483Z" fill="#444444"/>
<path d="M24.5118 235.645C31.0364 235.645 37.2998 236.931 41.9229 241.666C46.1091 245.948 48.2899 250.339 48.8662 255.317C49.4396 260.253 48.4149 266.604 46.46 271.25C42.5797 280.493 34.866 287.903 27.4678 293.371C26.6055 294.011 25.572 294.355 24.5118 294.355C23.4515 294.355 22.418 294.011 21.5557 293.371C14.1576 287.903 6.44386 280.489 2.56059 271.25C0.60873 266.604 -0.413079 260.253 0.157265 255.314C0.733656 250.339 2.91444 245.951 7.10062 241.666C11.742 236.926 17.9972 235.638 24.5118 235.645ZM24.5127 248.782C18.5747 248.782 13.7609 253.127 13.7608 260.332C13.7608 267.537 18.5746 276.119 24.5127 276.119C30.451 276.119 35.2657 267.537 35.2657 260.332C35.2655 253.127 30.4509 248.782 24.5127 248.782Z" fill="#00B94E"/>
<path d="M132.231 233.537H91.5118C90.9595 233.537 90.5118 233.984 90.5118 234.537V246.651C90.5118 247.204 90.9595 247.651 91.5118 247.651H115.355C115.874 247.651 116.302 248.045 116.318 248.564C116.408 251.63 116.214 261.893 110.324 271.233C106.053 278.005 95.5178 284.753 91.8202 286.988C91.204 287.36 91.1536 288.244 91.7281 288.678L102.796 297.037C103.111 297.275 103.526 297.31 103.866 297.108C106.888 295.311 121.539 286.015 127.843 271.233C132.786 259.639 133.194 239.213 133.222 234.518C133.225 233.969 132.78 233.537 132.231 233.537Z" fill="#444444"/>
<path d="M242.028 233.537C243.133 233.537 244.028 234.432 244.028 235.537V248.141C244.028 249.246 243.133 250.141 242.028 250.141H173.668C172.563 250.141 171.668 249.246 171.668 248.141V235.537C171.668 234.432 172.563 233.537 173.668 233.537H242.028Z" fill="#00B94E"/>
<path d="M171.627 281.636V268.835C171.627 267.218 173.446 266.27 174.772 267.195L193.924 280.563C194.695 281.101 195.737 281.03 196.427 280.391L206.559 271.019C207.329 270.307 208.519 270.311 209.284 271.028L219.272 280.384C219.959 281.027 221 281.105 221.774 280.572L241.248 267.159C242.575 266.245 244.383 267.195 244.383 268.806V281.628C244.383 282.232 244.11 282.804 243.64 283.183L221.706 300.904C220.972 301.497 219.924 301.497 219.19 300.903L209.177 292.79C208.446 292.198 207.402 292.195 206.668 292.782L196.509 300.91C195.772 301.5 194.723 301.494 193.992 300.896L172.36 283.183C171.896 282.803 171.627 282.235 171.627 281.636Z" fill="#00B94E"/>
</svg>
