<svg width="240" height="186" viewBox="0 0 240 186" fill="none" xmlns="http://www.w3.org/2000/svg">
<path d="M49.0139 146.968C49.0139 148.837 48.9218 150.647 48.7375 152.399H55.5552V141.712H48.8296C48.8911 142.588 48.9218 143.464 48.9218 144.34C48.9832 145.216 49.0139 146.092 49.0139 146.968ZM45.5129 166.24C43.6089 170.445 40.937 173.307 37.4975 175.702C34.1193 178.096 29.7892 179.264 24.507 179.206C20.0232 179.206 16.2151 178.388 13.0827 176.753C9.95019 175.059 7.40122 172.752 5.43575 169.832C3.5317 166.854 2.14973 163.817 1.28984 159.846C0.429947 155.816 0 151.494 0 146.88C0 142.325 0.429947 138.062 1.28984 134.091C2.14973 130.061 3.5317 127.024 5.43575 124.104C7.40122 121.184 9.95019 118.877 13.0827 117.183C16.2151 115.431 20.0232 114.555 24.507 114.555C29.9734 114.614 34.3957 115.899 37.7739 118.41C41.2134 120.921 43.8238 123.783 45.605 127.871H55.2788C55.156 126.002 55.0332 124.279 54.9103 122.702C54.8489 121.125 54.7568 119.665 54.6339 118.322C54.5111 117.388 54.6032 116.512 54.9103 115.694C55.2788 114.818 55.7702 114.03 56.3844 113.329C57.06 112.628 57.8278 112.044 58.6877 111.577C59.5476 111.11 60.4382 110.847 61.3595 110.788C63.5092 110.555 65.4133 111.022 67.0717 112.19C68.73 113.358 69.7128 114.876 70.0199 116.745C70.327 118.731 70.5419 121.447 70.6648 124.892C70.849 128.338 70.9719 132.134 71.0333 136.281C71.0947 140.427 71.0947 144.72 71.0333 149.158C71.0333 153.597 70.9719 157.831 70.849 161.86C70.7876 165.89 70.6648 169.511 70.4805 172.723C70.3577 175.877 70.2041 178.271 70.0199 179.906C69.897 180.782 69.5592 181.6 69.0064 182.359C68.515 183.118 67.8701 183.79 67.0717 184.374C66.3346 184.958 65.4747 185.396 64.492 185.688C63.5707 185.98 62.6186 186.068 61.6359 185.951C59.3633 185.717 57.5821 184.871 56.2923 183.41C55.0639 181.95 54.5111 180.344 54.6339 178.592C54.7568 177.016 54.8489 175.176 54.9103 173.073C55.0332 170.971 55.156 168.693 55.2788 166.24H45.5129ZM33.5358 147.056C33.5358 140.281 32.8295 136.748 31.4168 133.828C30.0041 130.908 27.6701 129.448 24.4148 129.448C22.9407 129.448 21.6509 129.798 20.5453 130.499C19.4397 131.141 18.4877 132.222 17.6892 133.74C16.9522 135.2 16.3172 137.761 15.9487 140.155C15.5802 142.55 15.4781 143.552 15.4781 147.056C15.4781 153.597 16.1537 157.889 17.505 160.809C18.8562 163.729 21.1595 165.189 24.4148 165.189C27.7315 165.189 30.0655 163.729 31.4168 160.809C32.8295 157.889 33.5358 153.597 33.5358 147.056Z" fill="url(#paint0_linear_1325_3472)"/>
<path d="M116.248 116.22C119.381 116.22 121.96 117.183 123.987 119.111C126.014 121.038 127.028 123.666 127.028 126.995V130.586C127.028 137.244 126.014 143.289 123.987 148.72C122.022 154.151 119.319 158.911 115.88 162.999C112.502 167.029 108.54 170.358 103.995 172.986C99.511 175.556 94.7816 177.308 89.8065 178.242C89.008 178.417 88.1174 178.417 87.1347 178.242C86.2134 178.067 85.3228 177.746 84.4629 177.278C83.603 176.753 82.866 176.052 82.2517 175.176C81.6375 174.3 81.2997 173.249 81.2383 172.022C81.1769 170.913 81.3304 169.92 81.6989 169.044C82.0675 168.168 82.5588 167.409 83.173 166.766C83.7873 166.124 84.4629 165.569 85.1999 165.102C85.9984 164.634 86.7969 164.284 87.5954 164.05C91.0349 162.941 94.2288 161.539 97.177 159.846C100.125 158.093 102.674 155.962 104.824 153.451C106.974 150.939 108.663 148.019 109.891 144.69C111.12 141.303 111.734 137.449 111.734 133.127C111.734 132.484 111.703 131.959 111.642 131.55C111.58 131.141 111.396 130.82 111.089 130.586C110.843 130.353 110.444 130.207 109.891 130.148C109.4 130.09 108.693 130.061 107.772 130.061H87.7796C87.2268 130.061 86.5819 129.915 85.8449 129.623C85.1692 129.331 84.5243 128.922 83.9101 128.396C83.3573 127.812 82.8659 127.082 82.436 126.206C82.0675 125.33 81.8832 124.308 81.8832 123.14C81.8832 122.031 82.0982 121.038 82.5281 120.162C82.9581 119.286 83.4802 118.556 84.0944 117.972C84.7086 117.388 85.3842 116.95 86.1213 116.658C86.8583 116.366 87.5339 116.22 88.1481 116.22H116.248ZM151.535 116.745C151.842 118.731 152.057 121.447 152.179 124.892C152.364 128.338 152.487 132.134 152.548 136.281C152.609 140.427 152.609 144.72 152.548 149.158C152.548 153.597 152.487 157.831 152.364 161.86C152.302 165.89 152.179 169.511 151.995 172.723C151.872 175.877 151.719 178.271 151.535 179.906C151.412 180.782 151.074 181.6 150.521 182.359C150.03 183.118 149.385 183.79 148.586 184.374C147.849 184.958 146.989 185.396 146.007 185.688C145.085 185.98 144.133 186.068 143.151 185.951C140.878 185.717 139.097 184.871 137.807 183.41C136.579 181.95 136.026 180.344 136.149 178.592C136.333 176.373 136.486 173.657 136.609 170.445C136.794 167.233 136.916 163.788 136.978 160.108C137.039 156.371 137.07 152.516 137.07 148.545C137.131 144.574 137.101 140.719 136.978 136.981C136.916 133.244 136.824 129.769 136.701 126.557C136.579 123.286 136.394 120.541 136.149 118.322C136.026 117.388 136.118 116.512 136.425 115.694C136.794 114.818 137.285 114.03 137.899 113.329C138.575 112.628 139.342 112.044 140.202 111.577C141.062 111.11 141.953 110.847 142.874 110.788C145.024 110.555 146.928 111.022 148.586 112.19C150.245 113.358 151.227 114.876 151.535 116.745Z" fill="url(#paint1_linear_1325_3472)"/>
<path d="M176.751 161.938C175.154 162.872 173.373 163.222 171.408 162.989C169.442 162.755 167.784 161.792 166.433 160.098C165.696 159.105 165.235 158.141 165.051 157.207C164.866 156.214 164.866 155.28 165.051 154.404C165.296 153.528 165.665 152.739 166.156 152.039C166.709 151.338 167.293 150.754 167.907 150.286C170.056 148.885 171.899 147.425 173.435 145.906C174.97 144.388 176.229 142.723 177.212 140.913C178.195 139.044 178.932 136.971 179.423 134.693C179.915 132.416 180.16 129.788 180.16 126.809V119.626C180.16 118.925 180.344 118.283 180.713 117.699C181.143 117.056 181.696 116.501 182.371 116.034C183.108 115.508 183.907 115.1 184.767 114.808C185.688 114.516 186.609 114.37 187.531 114.37C188.452 114.37 189.373 114.516 190.295 114.808C191.277 115.041 192.137 115.392 192.874 115.859C193.673 116.268 194.318 116.793 194.809 117.436C195.362 118.078 195.638 118.808 195.638 119.626V127.422C195.638 129.992 195.454 132.474 195.086 134.869L201.811 141.877C203.961 138.022 205.036 133.408 205.036 128.036V119.626C205.036 118.983 205.22 118.37 205.589 117.786C206.018 117.144 206.571 116.589 207.247 116.122C207.984 115.596 208.782 115.187 209.642 114.895C210.564 114.545 211.485 114.37 212.406 114.37C213.328 114.37 214.249 114.516 215.17 114.808C216.153 115.041 217.013 115.392 217.75 115.859C218.548 116.268 219.193 116.793 219.685 117.436C220.237 118.078 220.514 118.808 220.514 119.626V128.649C220.514 132.328 220.022 135.891 219.04 139.336C218.118 142.782 216.798 145.994 215.078 148.972C213.42 151.951 211.423 154.667 209.089 157.119C206.817 159.514 204.329 161.5 201.627 163.076C200.828 163.544 199.938 163.865 198.955 164.04C198.034 164.157 197.082 164.157 196.099 164.04C195.178 163.865 194.287 163.544 193.427 163.076C192.629 162.609 191.922 161.996 191.308 161.237C190.264 159.893 189.803 158.433 189.926 156.857C190.11 155.221 190.633 153.82 191.492 152.652L189.189 150.111C187.531 152.681 185.627 154.959 183.477 156.944C181.389 158.871 179.147 160.536 176.751 161.938ZM234.978 151.601C235.593 152.301 235.992 153.061 236.176 153.878C236.422 154.696 236.483 155.543 236.36 156.419C236.238 157.295 235.93 158.171 235.439 159.047C235.009 159.864 234.456 160.594 233.781 161.237C233.044 161.938 232.184 162.463 231.201 162.814C230.28 163.106 229.328 163.252 228.345 163.252C227.362 163.193 226.41 162.989 225.489 162.638C224.629 162.23 223.892 161.675 223.278 160.974L218.948 155.805C218.518 155.28 218.149 154.637 217.842 153.878C217.596 153.119 217.473 152.331 217.473 151.513C217.535 150.637 217.75 149.761 218.118 148.885C218.487 147.95 219.04 147.104 219.777 146.344C220.452 145.702 221.251 145.235 222.172 144.943C223.155 144.592 224.138 144.417 225.12 144.417C226.165 144.417 227.147 144.592 228.069 144.943C229.051 145.293 229.85 145.819 230.464 146.52L234.978 151.601ZM168.367 181.998C167.508 181.882 166.648 181.619 165.788 181.21C164.989 180.86 164.252 180.363 163.577 179.721C162.962 179.078 162.471 178.29 162.102 177.355C161.795 176.421 161.703 175.341 161.826 174.114C161.949 172.888 162.287 171.866 162.84 171.048C163.392 170.231 164.068 169.588 164.866 169.121C165.665 168.595 166.525 168.274 167.446 168.157C168.429 167.982 169.319 167.953 170.118 168.07C172.513 168.303 175.114 168.703 178.594 169.121C181.887 169.516 185.45 169.749 189.189 169.997C193.427 170.278 196.897 170.493 200.89 170.523C204.882 170.552 208.234 170.523 212.512 170.234C216.313 169.978 219.826 169.578 223.093 169.209C226.392 168.835 229.236 168.362 231.57 168.07C232.491 167.953 233.412 167.982 234.333 168.157C235.316 168.332 236.207 168.654 237.005 169.121C237.804 169.588 238.479 170.26 239.032 171.136C239.585 172.012 239.892 173.092 239.953 174.377C240.076 175.603 239.953 176.684 239.585 177.618C239.216 178.494 238.694 179.224 238.019 179.808C237.405 180.451 236.667 180.947 235.808 181.298C235.009 181.648 234.211 181.882 233.412 181.998C231.57 182.232 228.978 182.673 225.673 182.962C222.221 183.264 218.578 183.469 214.473 183.759C210.269 184.056 206.204 184.364 201.535 184.364C196.992 184.364 192.628 184.415 188.278 184.122C184.079 183.84 180.342 183.535 176.751 183.137C173.269 182.751 170.456 182.29 168.367 181.998Z" fill="#CD1891"/>
<path d="M146.575 48.5849C146.575 48.5849 145.955 56.3357 144.943 61.2085C143.146 69.8623 142.624 74.638 139.555 77.3671C136.486 80.0962 131.764 80.0995 122.327 80.0995H119.581C110.144 80.0995 105.422 80.0995 102.353 77.3671C99.284 74.638 98.4186 69.9859 96.9655 61.2085C96.1532 56.302 95.3335 48.5849 95.3335 48.5849M93.4414 27.3726C97.1561 24.6513 107.145 18.6921 117.383 16.6255C127.62 14.5589 137.472 14.6102 141.119 14.8942M111.695 41.434L111.711 45.3659M129.508 41.434L129.525 45.3659M103.851 17.4592C103.564 13.6429 104.586 7.47069 112.967 6.164C119.962 5.07341 122.867 9.64492 124.062 12.8251" stroke="#9B2BD9" stroke-width="12" stroke-linecap="round"/>
<defs>
<linearGradient id="paint0_linear_1325_3472" x1="24.7366" y1="110.73" x2="221.355" y2="110.73" gradientUnits="userSpaceOnUse">
<stop stop-color="#A72FE7"/>
<stop offset="1" stop-color="#CD1891"/>
</linearGradient>
<linearGradient id="paint1_linear_1325_3472" x1="24.7366" y1="110.73" x2="221.355" y2="110.73" gradientUnits="userSpaceOnUse">
<stop stop-color="#A72FE7"/>
<stop offset="1" stop-color="#CD1891"/>
</linearGradient>
</defs>
</svg>
