<svg width="32" height="38" viewBox="0 0 32 38" fill="none" xmlns="http://www.w3.org/2000/svg">
<path d="M15.999 0.25H16C20.1942 0.250091 24.2192 1.87956 27.1895 4.78613C29.8839 7.41945 31.2795 10.3577 31.6484 13.4023C32.0159 16.4241 31.3599 19.468 30.0967 22.3359C27.6658 27.8676 22.8995 32.9289 18.2363 36.3242L17.7852 36.6475C17.6357 36.7534 17.4805 36.881 17.3291 37.0059C17.1749 37.1331 17.0217 37.2597 16.8662 37.373C16.5474 37.6055 16.2613 37.75 16 37.75C15.7387 37.75 15.4528 37.6055 15.1338 37.373C14.9781 37.2596 14.8253 37.1332 14.6709 37.0059C14.5194 36.8809 14.3643 36.7534 14.2148 36.6475H14.2139C9.40982 33.2549 4.41168 28.0442 1.90039 22.3359C0.639171 19.4681 -0.0149096 16.4243 0.350586 13.4004C0.696476 10.5479 1.94441 7.78835 4.31934 5.2832L4.80957 4.78613C7.7921 1.87612 11.8119 0.246224 15.999 0.25Z" fill="#00B94E" stroke="#005622" stroke-width="0.5"/>
<path d="M10.93 16.34H12.25V17.67H10.93V16.34ZM7.43 15.56H15.76V16.53H7.43V15.56ZM10.92 11.62H12.25V12.73H10.92V11.62ZM10.84 12.79H12.01V12.98C12.01 13.3133 11.9267 13.6167 11.76 13.89C11.5933 14.1567 11.3467 14.3933 11.02 14.6C10.6933 14.8 10.2867 14.9633 9.8 15.09C9.31333 15.21 8.75 15.2867 8.11 15.32L7.74 14.34C8.30667 14.3133 8.78667 14.26 9.18 14.18C9.57333 14.0933 9.89 13.99 10.13 13.87C10.3767 13.7433 10.5567 13.6033 10.67 13.45C10.7833 13.2967 10.84 13.14 10.84 12.98V12.79ZM11.16 12.79H12.33V12.98C12.33 13.14 12.3833 13.2967 12.49 13.45C12.6033 13.6033 12.7833 13.7433 13.03 13.87C13.2767 13.99 13.5967 14.0933 13.99 14.18C14.39 14.26 14.87 14.3133 15.43 14.34L15.06 15.32C14.42 15.2867 13.8567 15.21 13.37 15.09C12.8833 14.9633 12.4767 14.8 12.15 14.6C11.8233 14.3933 11.5767 14.1567 11.41 13.89C11.2433 13.6167 11.16 13.3133 11.16 12.98V12.79ZM8.2 12.34H14.97V13.31H8.2V12.34ZM8.36 17.09H14.76V19.38H9.69V20.26H8.37V18.49H13.45V18.04H8.36V17.09ZM8.37 19.86H15.01V20.83H8.37V19.86ZM16.8692 12.03H18.1892V13.13H20.0092V12.03H21.3192V16.08H16.8692V12.03ZM18.1892 14.12V15.05H20.0092V14.12H18.1892ZM22.5592 11.63H23.8892V16.33H22.5592V11.63ZM23.3592 13.4H25.1092V14.49H23.3592V13.4ZM17.7792 16.68H23.8892V19.21H19.1092V20.3H17.7892V18.26H22.5792V17.7H17.7792V16.68ZM17.7892 19.79H24.1592V20.83H17.7892V19.79Z" fill="white"/>
</svg>
