<svg width="40" height="50" viewBox="0 0 40 50" fill="none" xmlns="http://www.w3.org/2000/svg">
<path d="M19.999 0.25H20C25.2547 0.25012 30.3007 2.39868 34.0264 6.23633C37.4049 9.71197 39.1583 13.5948 39.6221 17.623C40.0838 21.6197 39.2599 25.6412 37.6768 29.4248C34.5326 36.9563 28.2737 43.8197 22.2627 48.2881H22.2617C22.0771 48.4259 21.8851 48.593 21.6953 48.7578C21.5028 48.925 21.3105 49.0926 21.1143 49.2432C20.713 49.5511 20.3435 49.75 20 49.75C19.6565 49.75 19.2871 49.5509 18.8857 49.2432C18.6894 49.0926 18.4963 48.925 18.3037 48.7578C18.1138 48.593 17.922 48.4259 17.7373 48.2881H17.7363C11.7254 43.8198 5.46688 36.9538 2.32031 29.4248C0.739641 25.6414 -0.0822899 21.6203 0.376953 17.6211C0.826207 13.7211 2.48601 9.95721 5.66113 6.56348L5.97266 6.23633C9.71362 2.39422 14.7529 0.244966 19.999 0.25Z" fill="#9B2BD9" stroke="#7E1FB7" stroke-width="0.5"/>
<path d="M10.356 19.896L9.924 18.732C12.144 18.636 13.224 18.108 13.524 17.484H10.476V16.344H13.704V15.468H15.288V16.344H18.54V17.484H15.468C15.78 18.108 16.86 18.636 19.08 18.732L18.636 19.896C16.584 19.788 15.192 19.284 14.496 18.468C13.812 19.284 12.42 19.788 10.356 19.896ZM19.488 21.336H15.3V21.996H18.288V24.732H12.24V25.308H18.576V26.448H10.668V23.664H16.728V23.136H10.656V21.996H13.716V21.336H9.54V20.172H19.488V21.336ZM24.3711 19.572V18.468H22.1991V19.572H24.3711ZM25.9311 15.96V20.808H20.6391V15.96H22.1991V17.28H24.3711V15.96H25.9311ZM23.3031 24.528V25.224H29.3391V26.448H21.7311V23.4H27.4551V22.728H21.7191V21.528H29.0151V24.528H23.3031ZM29.0151 17.616H30.4671V18.9H29.0151V21.096H27.4311V15.48H29.0151V17.616Z" fill="white"/>
</svg>
