<svg width="44" height="53" viewBox="0 0 44 53" fill="none" xmlns="http://www.w3.org/2000/svg">
<g filter="url(#filter0_f_1283_3445)">
<path d="M8.38267 10.7371C11.901 7.31635 16.6424 5.40097 21.5807 5.40553C26.5265 5.40553 31.2742 7.31982 34.7787 10.7371C37.9521 13.8276 39.6052 17.2871 40.0421 20.88C40.4768 24.4418 39.6998 28.0169 38.2178 31.3697C35.2764 38.0398 27.7748 43.187 23.8216 48.0515C23.3131 48.6773 22.3844 50.0001 21.5807 50.0001C20.777 50.0001 20.3423 49.3807 19.3397 48.0515C15.2103 42.5768 7.88493 38.0375 4.94128 31.3697C3.46157 28.0169 2.68681 24.4418 3.11923 20.8778C3.55616 17.2871 5.20929 13.8298 8.38267 10.7371Z" fill="#262626"/>
</g>
<path d="M21.5771 1H21.5781C26.5561 1 31.3362 2.86704 34.9336 6.20508L35.2783 6.53223C38.5877 9.7551 40.2782 13.3234 40.7256 17.002C41.1724 20.6629 40.3783 24.3795 38.8135 27.9199V27.9209C37.289 31.3779 34.5556 34.4909 31.583 37.4541C28.6698 40.3581 25.4462 43.1865 23.2471 45.8926C22.9274 46.2859 22.5949 46.7411 22.2031 47.1455C22.014 47.3407 21.8479 47.4832 21.7109 47.5713C21.6251 47.6265 21.5771 47.6429 21.5625 47.6475C21.4591 47.6458 21.3555 47.6248 21.1299 47.4082C20.8384 47.1285 20.5067 46.6833 19.9316 45.9209C17.6188 42.8546 14.3963 40.0313 11.4941 37.1963C8.54152 34.312 5.86323 31.3694 4.34082 27.9209C2.7785 24.3809 1.98723 20.6641 2.43164 17C2.87891 13.3244 4.56858 9.75866 7.87793 6.5332C11.5278 2.98464 16.449 0.995357 21.5771 1Z" fill="url(#paint0_linear_1283_3445)" stroke="white" stroke-width="2"/>
<path d="M32.6773 24.3332L29.8411 29.2454C29.2852 30.2211 28.2528 30.7316 27.2091 30.6635H24.9401V32.9325L22.104 27.8274L24.9401 22.7222V24.9912H28.1394L25.6208 20.6234L30.5331 17.7872L32.5752 21.3268C33.1651 22.2004 33.2445 23.3689 32.6773 24.3332ZM18.3715 10.311H24.0439C25.1557 10.311 26.12 10.9577 26.5851 11.888L27.7196 13.8619L29.6823 12.7275L27.1985 17.8326H20.8447L22.8073 16.6981L21.2077 13.9187L18.7005 18.2864L13.7769 15.4502L15.819 11.9106C16.2841 10.969 17.2484 10.311 18.3715 10.311ZM13.6521 29.2568L10.8159 24.3445C10.26 23.3802 10.3394 22.223 10.918 21.3495L12.0525 19.3868L10.0898 18.2524L15.9211 18.3431L18.9274 23.3575L16.9648 22.223L15.3652 24.9912H20.4022V30.6635H16.3181C15.7866 30.702 15.255 30.5906 14.7837 30.3419C14.3124 30.0932 13.9203 29.7172 13.6521 29.2568Z" fill="white"/>
<defs>
<filter id="filter0_f_1283_3445" x="0" y="2.40552" width="43.1641" height="50.5945" filterUnits="userSpaceOnUse" color-interpolation-filters="sRGB">
<feFlood flood-opacity="0" result="BackgroundImageFix"/>
<feBlend mode="normal" in="SourceGraphic" in2="BackgroundImageFix" result="shape"/>
<feGaussianBlur stdDeviation="1.5" result="effect1_foregroundBlur_1283_3445"/>
</filter>
<linearGradient id="paint0_linear_1283_3445" x1="11.1259" y1="-2.4178" x2="47.6772" y2="27.5171" gradientUnits="userSpaceOnUse">
<stop stop-color="#A72FE7"/>
<stop offset="0.616715" stop-color="#8225B4" stop-opacity="0.95"/>
<stop offset="1" stop-color="#5D1A81"/>
</linearGradient>
</defs>
</svg>
