<svg width="36" height="39" viewBox="0 0 36 39" fill="none" xmlns="http://www.w3.org/2000/svg">
<path d="M26 36.5C26 37.8807 22.4183 39 18 39C13.5817 39 10 37.8807 10 36.5C10 35.1193 13.5817 34 18 34C22.4183 34 26 35.1193 26 36.5Z" fill="url(#paint0_radial_154_766)"/>
<path d="M17.999 1.25H18C21.9283 1.25009 25.6979 2.77099 28.4795 5.4834C31.0031 7.94109 32.3099 10.6823 32.6553 13.5225C32.9993 16.3416 32.3855 19.1821 31.2021 21.8594H31.2012C30.0339 24.5063 27.9553 26.8642 25.749 29.0635C23.5576 31.2479 21.2205 33.293 19.6143 35.2695C19.3986 35.535 19.1239 35.9091 18.8145 36.2285C18.6613 36.3866 18.5087 36.5217 18.3633 36.6152C18.216 36.71 18.0951 36.7499 18 36.75C17.7579 36.75 17.5662 36.6641 17.3281 36.4355C17.0766 36.1941 16.8022 35.822 16.3906 35.2764C14.7087 33.0465 12.3714 31.0027 10.1943 28.876C8.00471 26.737 5.96325 24.5035 4.7959 21.8594C3.6882 19.3495 3.0806 16.6962 3.29102 14.0498L3.34473 13.5205C3.69011 10.6823 4.99597 7.94289 7.51953 5.4834C10.3126 2.76776 14.0774 1.24649 17.999 1.25Z" fill="#009039" stroke="#005622" stroke-width="0.5"/>
<path d="M26 14.2336L25.0953 15.7742L14.1218 9.5406L15.0264 8L17.7766 9.55841L19.007 9.22892L22.9241 11.4552L23.2589 12.6752L26 14.2336ZM13 23.219V12.5327H17.5866L23.8559 16.0948V23.219C23.8559 23.6913 23.6653 24.1443 23.326 24.4783C22.9867 24.8124 22.5265 25 22.0466 25H14.8093C14.3295 25 13.8693 24.8124 13.5299 24.4783C13.1906 24.1443 13 23.6913 13 23.219Z" fill="white"/>
<defs>
<radialGradient id="paint0_radial_154_766" cx="0" cy="0" r="1" gradientUnits="userSpaceOnUse" gradientTransform="translate(18 36.5) rotate(90) scale(2.5 8)">
<stop offset="0.197115" stop-color="#989898"/>
<stop offset="0.586538" stop-color="#BABABA" stop-opacity="0.4"/>
<stop offset="0.798077" stop-color="#D7D7D7" stop-opacity="0.2"/>
<stop offset="0.948806" stop-color="#D7D7D7" stop-opacity="0.1"/>
</radialGradient>
</defs>
</svg>
