<svg width="44" height="53" viewBox="0 0 44 53" fill="none" xmlns="http://www.w3.org/2000/svg">
<g filter="url(#filter0_f_1283_3446)">
<path d="M9.28989 11.1573C12.7706 7.77319 17.4612 5.87831 22.3466 5.88282C27.2395 5.88282 31.9364 7.77663 35.4033 11.1573C38.5427 14.2147 40.1781 17.6372 40.6104 21.1916C41.0404 24.7153 40.2717 28.2522 38.8056 31.5691C35.8957 38.1677 28.4744 43.2599 24.5636 48.0722C24.0605 48.6913 23.1417 50 22.3466 50C21.5515 50 21.1215 49.3873 20.1296 48.0722C16.0444 42.6561 8.79748 38.1655 5.88534 31.5691C4.42147 28.2522 3.655 24.7153 4.0828 21.1894C4.51505 17.6372 6.15049 14.2169 9.28989 11.1573Z" fill="#262626"/>
</g>
<path d="M22.6807 1H22.6816C27.7624 1 32.6349 2.96647 36.2275 6.46973V6.4707C39.2953 9.45827 40.9557 12.745 41.5156 16.1406L41.6133 16.8213C42.055 20.4407 41.2703 24.1158 39.7227 27.6172L39.7217 27.6182C38.2143 31.0361 35.5127 34.1147 32.5723 37.0459C29.691 39.9181 26.5003 42.7169 24.3242 45.3945C24.0075 45.7843 23.6792 46.2342 23.292 46.6338C23.1053 46.8264 22.942 46.9662 22.8076 47.0527C22.7274 47.1043 22.6808 47.1208 22.665 47.126C22.5664 47.1243 22.466 47.1046 22.2451 46.8926C21.9577 46.6166 21.6305 46.1772 21.0615 45.4229C18.7729 42.3886 15.5833 39.595 12.7129 36.791C9.79198 33.9377 7.14389 31.0267 5.63867 27.6172C4.09374 24.1164 3.31068 20.4417 3.75 16.8193C4.19215 13.1857 5.86261 9.65999 9.13477 6.4707C12.7436 2.96195 17.61 0.995357 22.6807 1Z" fill="url(#paint0_linear_1283_3446)" stroke="white" stroke-width="2"/>
<path d="M32.7076 17.9596L31.4982 20.0192L16.8278 11.6856L18.0372 9.62598L21.7139 11.7094L23.3587 11.2689L28.5956 14.2452L29.0431 15.8762L32.7076 17.9596ZM15.3281 29.972V15.6857H21.4599L29.8413 20.4478V29.972C29.8413 30.6035 29.5864 31.2091 29.1328 31.6556C28.6792 32.1022 28.0639 32.353 27.4224 32.353H17.747C17.1055 32.353 16.4902 32.1022 16.0366 31.6556C15.583 31.2091 15.3281 30.6035 15.3281 29.972Z" fill="white"/>
<defs>
<filter id="filter0_f_1283_3446" x="0.964844" y="2.88281" width="42.7656" height="50.1172" filterUnits="userSpaceOnUse" color-interpolation-filters="sRGB">
<feFlood flood-opacity="0" result="BackgroundImageFix"/>
<feBlend mode="normal" in="SourceGraphic" in2="BackgroundImageFix" result="shape"/>
<feGaussianBlur stdDeviation="1.5" result="effect1_foregroundBlur_1283_3446"/>
</filter>
<linearGradient id="paint0_linear_1283_3446" x1="12.3412" y1="-2.39191" x2="48.5011" y2="27.2226" gradientUnits="userSpaceOnUse">
<stop stop-color="#A72FE7"/>
<stop offset="0.616715" stop-color="#8225B4" stop-opacity="0.95"/>
<stop offset="1" stop-color="#5D1A81"/>
</linearGradient>
</defs>
</svg>
