<svg width="25" height="29" viewBox="0 0 25 29" fill="none" xmlns="http://www.w3.org/2000/svg">
<g clip-path="url(#clip0_2104_2)">
<path d="M3.95408 3.77834C6.23224 1.5346 9.30236 0.278266 12.4999 0.281255C15.7024 0.281255 18.7766 1.53688 21.0457 3.77834C23.1005 5.80542 24.171 8.07459 24.4539 10.4313C24.7353 12.7675 24.2322 15.1125 23.2726 17.3117C21.368 21.6867 17.5822 25.665 13.951 28.2535C13.5277 28.5564 13.0203 28.7192 12.4999 28.7192C11.9795 28.7192 11.4721 28.5564 11.0489 28.2535C7.41762 25.665 3.63179 21.6852 1.72575 17.3117C0.767622 15.1125 0.265955 12.7675 0.545955 10.4298C0.828872 8.07459 1.89929 5.80688 3.95408 3.77834Z" fill="#2ECC71"/>
<path d="M20.5986 9.94271L19.6872 11.5195L8.63118 5.13932L9.54264 3.5625L12.3135 5.15755L13.5531 4.82031L17.4997 7.09896L17.8369 8.34766L20.5986 9.94271ZM7.50098 19.1393V8.20182H12.1221L18.4385 11.8477V19.1393C18.4385 19.6228 18.2464 20.0865 17.9046 20.4283C17.5627 20.7702 17.099 20.9622 16.6156 20.9622H9.32389C8.84043 20.9622 8.37676 20.7702 8.0349 20.4283C7.69303 20.0865 7.50098 19.6228 7.50098 19.1393Z" fill="white"/>
</g>
<defs>
<clipPath id="clip0_2104_2">
<rect width="25" height="29" fill="white"/>
</clipPath>
</defs>
</svg>
